<svg width="1280" height="630" viewBox="0 0 1280 630" xmlns="http://www.w3.org/2000/svg" style="display:block">
  <defs>
    <linearGradient id="bgGrad" x1="0%" y1="0%" x2="100%" y2="100%">
      <stop offset="0%" style="stop-color:#060b18"/>
      <stop offset="100%" style="stop-color:#0d1525"/>
    </linearGradient>
    <linearGradient id="libsGrad" x1="0%" y1="0%" x2="0%" y2="100%">
      <stop offset="0%" style="stop-color:#1a2a4a"/>
      <stop offset="100%" style="stop-color:#0f1a30"/>
    </linearGradient>
    <linearGradient id="wrfGrad" x1="0%" y1="0%" x2="0%" y2="100%">
      <stop offset="0%" style="stop-color:#1a3a2a"/>
      <stop offset="100%" style="stop-color:#0f2018"/>
    </linearGradient>
    <linearGradient id="wpsGrad" x1="0%" y1="0%" x2="0%" y2="100%">
      <stop offset="0%" style="stop-color:#2a1a3a"/>
      <stop offset="100%" style="stop-color:#180f25"/>
    </linearGradient>
    <linearGradient id="outGrad" x1="0%" y1="0%" x2="0%" y2="100%">
      <stop offset="0%" style="stop-color:#3a1a1a"/>
      <stop offset="100%" style="stop-color:#200f0f"/>
    </linearGradient>
    <linearGradient id="inputGrad" x1="0%" y1="0%" x2="0%" y2="100%">
      <stop offset="0%" style="stop-color:#1a2535"/>
      <stop offset="100%" style="stop-color:#101820"/>
    </linearGradient>
    <marker id="arrowBlue" markerWidth="8" markerHeight="8" refX="6" refY="3" orient="auto">
      <path d="M0,0 L0,6 L8,3 z" fill="#4a9eff"/>
    </marker>
    <marker id="arrowGreen" markerWidth="8" markerHeight="8" refX="6" refY="3" orient="auto">
      <path d="M0,0 L0,6 L8,3 z" fill="#4aff9e"/>
    </marker>
    <marker id="arrowAmber" markerWidth="8" markerHeight="8" refX="6" refY="3" orient="auto">
      <path d="M0,0 L0,6 L8,3 z" fill="#ffb84a"/>
    </marker>
    <marker id="arrowPurple" markerWidth="8" markerHeight="8" refX="6" refY="3" orient="auto">
      <path d="M0,0 L0,6 L8,3 z" fill="#c04aff"/>
    </marker>
    <marker id="arrowGray" markerWidth="8" markerHeight="8" refX="6" refY="3" orient="auto">
      <path d="M0,0 L0,6 L8,3 z" fill="#4a6090"/>
    </marker>
    <pattern id="grid" width="40" height="40" patternUnits="userSpaceOnUse">
      <path d="M 40 0 L 0 0 0 40" fill="none" stroke="#ffffff" stroke-width="0.15" opacity="0.05"/>
    </pattern>
  </defs>

  <!-- Background -->
  <rect width="1280" height="630" fill="url(#bgGrad)" rx="12"/>
  <rect width="1280" height="630" fill="url(#grid)" rx="12"/>

  <!-- Corner accents -->
  <line x1="0" y1="28" x2="28" y2="0" stroke="#4a9eff" stroke-width="1" opacity="0.3"/>
  <line x1="1280" y1="28" x2="1252" y2="0" stroke="#4a9eff" stroke-width="1" opacity="0.3"/>
  <line x1="0" y1="602" x2="28" y2="630" stroke="#4a9eff" stroke-width="1" opacity="0.3"/>
  <line x1="1280" y1="602" x2="1252" y2="630" stroke="#4a9eff" stroke-width="1" opacity="0.3"/>

  <!-- TITLE -->
  <text x="640" y="38" text-anchor="middle" font-family="'Courier New', monospace" font-size="10" fill="#4a9eff" opacity="0.7" letter-spacing="6">WRF · DOCKER · PIPELINE</text>
  <text x="640" y="62" text-anchor="middle" font-family="Georgia, serif" font-size="20" fill="#e8f0ff" font-weight="bold" letter-spacing="1">Containerized Numerical Weather Prediction</text>
  <line x1="30" y1="74" x2="1250" y2="74" stroke="#4a9eff" stroke-width="0.5" opacity="0.2"/>

  <!-- ================================================================
       COLUMN X POSITIONS (card width = 175, gap = 40)
       C1 INPUTS:   x=14
       C2 BUILD 1+2:x=229   (14+175+40)
       C3 BUILD 3:  x=444   (229+175+40)
       C4 RUN WPS:  x=659   (444+175+40)
       C5 RUN WRF:  x=874   (659+175+40)
       C6 OUTPUTS:  x=1089  (874+175+40)  w=177
       Total: 1089+177+14 = 1280 ✓
       ================================================================ -->

  <!-- ===== C1: INPUTS  x=14  w=175 ===== -->
  <rect x="14" y="84" width="175" height="472" rx="8" fill="url(#inputGrad)" stroke="#2a4060" stroke-width="1"/>
  <rect x="14" y="84" width="175" height="36" rx="8" fill="#162840" opacity="0.95"/>
  <rect x="14" y="102" width="175" height="18" fill="#162840" opacity="0.95"/>
  <text x="101" y="97" text-anchor="middle" font-family="'Courier New', monospace" font-size="7" fill="#304060" letter-spacing="3">REQUIRED</text>
  <text x="101" y="113" text-anchor="middle" font-family="Georgia, serif" font-size="11" fill="#70a0c0" font-weight="bold">Input Data</text>

  <rect x="24" y="128" width="155" height="54" rx="5" fill="#0d1e30" stroke="#2a4060" stroke-width="0.8"/>
  <circle cx="36" cy="143" r="3" fill="#4a9eff" opacity="0.7"/>
  <text x="44" y="147" font-family="'Courier New', monospace" font-size="8" fill="#4a9eff">WPS_GEOG</text>
  <text x="34" y="160" font-family="'Courier New', monospace" font-size="7" fill="#5a80a0">Static terrain &amp;</text>
  <text x="34" y="172" font-family="'Courier New', monospace" font-size="7" fill="#5a80a0">land-use data</text>

  <rect x="24" y="190" width="155" height="54" rx="5" fill="#0d1e30" stroke="#2a4060" stroke-width="0.8"/>
  <circle cx="36" cy="205" r="3" fill="#4aff9e" opacity="0.7"/>
  <text x="44" y="209" font-family="'Courier New', monospace" font-size="8" fill="#4aff9e">namelist.wps</text>
  <text x="34" y="222" font-family="'Courier New', monospace" font-size="7" fill="#5a80a0">Domain center,</text>
  <text x="34" y="234" font-family="'Courier New', monospace" font-size="7" fill="#5a80a0">resolution, dates</text>

  <rect x="24" y="252" width="155" height="54" rx="5" fill="#0d1e30" stroke="#2a4060" stroke-width="0.8"/>
  <circle cx="36" cy="267" r="3" fill="#ff9e4a" opacity="0.7"/>
  <text x="44" y="271" font-family="'Courier New', monospace" font-size="8" fill="#ff9e4a">Vtable</text>
  <text x="34" y="284" font-family="'Courier New', monospace" font-size="7" fill="#5a80a0">GFS variable</text>
  <text x="34" y="296" font-family="'Courier New', monospace" font-size="7" fill="#5a80a0">mapping table</text>

  <rect x="24" y="314" width="155" height="54" rx="5" fill="#0d1e30" stroke="#2a4060" stroke-width="0.8"/>
  <circle cx="36" cy="329" r="3" fill="#ff4a9e" opacity="0.7"/>
  <text x="44" y="333" font-family="'Courier New', monospace" font-size="8" fill="#ff4a9e">namelist.input</text>
  <text x="34" y="346" font-family="'Courier New', monospace" font-size="7" fill="#5a80a0">WRF physics &amp;</text>
  <text x="34" y="358" font-family="'Courier New', monospace" font-size="7" fill="#5a80a0">run config</text>

  <rect x="24" y="376" width="155" height="54" rx="5" fill="#0d1e30" stroke="#2a4060" stroke-width="0.8"/>
  <circle cx="36" cy="391" r="3" fill="#b04aff" opacity="0.7"/>
  <text x="44" y="395" font-family="'Courier New', monospace" font-size="8" fill="#b04aff">GFS GRIB2</text>
  <text x="34" y="408" font-family="'Courier New', monospace" font-size="7" fill="#5a80a0">Boundary &amp; initial</text>
  <text x="34" y="420" font-family="'Courier New', monospace" font-size="7" fill="#5a80a0">met conditions</text>

  <rect x="24" y="438" width="155" height="16" rx="4" fill="#0a1525" stroke="#1a3a5a" stroke-width="0.7"/>
  <text x="101" y="449" text-anchor="middle" font-family="'Courier New', monospace" font-size="7" fill="#4a9eff" opacity="0.8">↓ download_gfs.sh</text>

  <!-- dashed mount arrow C1 -> C4 -->
  <line x1="189" y1="350" x2="656" y2="470" stroke="#2a4060" stroke-width="0.8" stroke-dasharray="5,4" marker-end="url(#arrowGray)" opacity="0.3"/>

  <!-- ===== C2: STAGE 1 + STAGE 2   x=229  w=175 ===== -->

  <!-- STAGE 1 -->
  <rect x="229" y="84" width="175" height="222" rx="8" fill="url(#libsGrad)" stroke="#2a4a8a" stroke-width="1.2"/>
  <rect x="229" y="84" width="175" height="44" rx="8" fill="#1a3060" opacity="0.95"/>
  <rect x="229" y="110" width="175" height="18" fill="#1a3060" opacity="0.95"/>
  <rect x="237" y="91" width="13" height="10" rx="1" fill="none" stroke="#4a9eff" stroke-width="1.1"/>
  <rect x="240" y="93" width="3" height="3" rx="0.5" fill="#4a9eff"/>
  <rect x="244" y="93" width="3" height="3" rx="0.5" fill="#4a9eff"/>
  <rect x="244" y="97" width="3" height="3" rx="0.5" fill="#4a9eff"/>
  <rect x="240" y="97" width="3" height="3" rx="0.5" fill="#4a9eff"/>
  <text x="255" y="101" font-family="'Courier New', monospace" font-size="7.5" fill="#4a9eff" letter-spacing="3">STAGE 1</text>
  <text x="316" y="120" text-anchor="middle" font-family="Georgia, serif" font-size="12" fill="#c0d8ff" font-weight="bold">wrf-libs-base</text>
  <rect x="248" y="136" width="136" height="12" rx="3" fill="#0d1e40" stroke="#2a4080" stroke-width="0.6"/>
  <text x="316" y="145" text-anchor="middle" font-family="'Courier New', monospace" font-size="7" fill="#6a90d0">Dockerfile.libs</text>
  <g font-family="'Courier New', monospace" font-size="7.5" fill="#7a9abf">
    <text x="240" y="163">▸ ubuntu:22.04</text>
    <text x="240" y="177">▸ gfortran / gcc / g++</text>
    <text x="240" y="191">▸ libnetcdf-dev · libmpich</text>
    <text x="240" y="205">▸ <tspan fill="#ffb84a">Jasper 1.900.1</tspan> (source)</text>
    <text x="240" y="219">  + const char* patch</text>
    <text x="240" y="234" fill="#ff7a5a" font-size="7">⚑ Fixes ungrib GRIB2 support</text>
    <text x="240" y="247" fill="#ff7a5a" font-size="7">⚑ Sets JASPERLIB / NETCDF</text>
  </g>

  <!-- FROM arrow S1 → S2 (vertical) -->
  <line x1="316" y1="306" x2="316" y2="322" stroke="#4a9eff" stroke-width="1.5" stroke-dasharray="3,2" marker-end="url(#arrowBlue)" opacity="0.7"/>
  <text x="328" y="317" font-family="'Courier New', monospace" font-size="7" fill="#4a9eff" opacity="0.7">FROM</text>

  <!-- STAGE 2 -->
  <rect x="229" y="324" width="175" height="232" rx="8" fill="url(#wrfGrad)" stroke="#2a6a4a" stroke-width="1.2"/>
  <rect x="229" y="324" width="175" height="44" rx="8" fill="#1a4030" opacity="0.95"/>
  <rect x="229" y="350" width="175" height="18" fill="#1a4030" opacity="0.95"/>
  <rect x="237" y="331" width="13" height="10" rx="1" fill="none" stroke="#4aff9e" stroke-width="1.1"/>
  <rect x="240" y="333" width="3" height="3" rx="0.5" fill="#4aff9e"/>
  <rect x="244" y="333" width="3" height="3" rx="0.5" fill="#4aff9e"/>
  <rect x="244" y="337" width="3" height="3" rx="0.5" fill="#4aff9e"/>
  <rect x="240" y="337" width="3" height="3" rx="0.5" fill="#4aff9e"/>
  <text x="255" y="341" font-family="'Courier New', monospace" font-size="7.5" fill="#4aff9e" letter-spacing="3">STAGE 2</text>
  <text x="316" y="358" text-anchor="middle" font-family="Georgia, serif" font-size="12" fill="#c0ffd8" font-weight="bold">wrf-compiled</text>
  <rect x="248" y="374" width="136" height="12" rx="3" fill="#0d2018" stroke="#204030" stroke-width="0.6"/>
  <text x="316" y="383" text-anchor="middle" font-family="'Courier New', monospace" font-size="7" fill="#6ab090">Dockerfile.wrf</text>
  <g font-family="'Courier New', monospace" font-size="7.5" fill="#7abf9a">
    <text x="240" y="401">▸ FROM wrf-libs-base</text>
    <text x="240" y="415">▸ WRF v4.5.2 (git clone)</text>
    <text x="240" y="429">▸ configure: opt 34 + opt 1</text>
    <text x="240" y="443">▸ <tspan fill="#ffb84a">-fno-lto</tspan> patch applied</text>
    <text x="240" y="457">▸ ./compile em_real -j 2</text>
    <text x="240" y="474" fill="#ff7a5a" font-size="7">⚑ wrf.exe + real.exe</text>
    <text x="240" y="488" fill="#ff7a5a" font-size="7">⚑ Fixes Ubuntu LTO linker error</text>
  </g>

  <!-- FROM arrow S2 → S3 (horizontal) — gap is 40px, from x=404 to x=444 -->
  <line x1="404" y1="448" x2="441" y2="448" stroke="#4aff9e" stroke-width="1.5" stroke-dasharray="3,2" marker-end="url(#arrowGreen)" opacity="0.8"/>
  <text x="422" y="441" text-anchor="middle" font-family="'Courier New', monospace" font-size="7" fill="#4aff9e" opacity="0.8">FROM</text>

  <!-- ===== C3: STAGE 3   x=444  w=175 ===== -->
  <rect x="444" y="84" width="175" height="472" rx="8" fill="url(#wpsGrad)" stroke="#6a2a8a" stroke-width="1.2"/>
  <rect x="444" y="84" width="175" height="44" rx="8" fill="#3a1a50" opacity="0.95"/>
  <rect x="444" y="110" width="175" height="18" fill="#3a1a50" opacity="0.95"/>
  <rect x="452" y="91" width="13" height="10" rx="1" fill="none" stroke="#c04aff" stroke-width="1.1"/>
  <rect x="455" y="93" width="3" height="3" rx="0.5" fill="#c04aff"/>
  <rect x="459" y="93" width="3" height="3" rx="0.5" fill="#c04aff"/>
  <rect x="459" y="97" width="3" height="3" rx="0.5" fill="#c04aff"/>
  <rect x="455" y="97" width="3" height="3" rx="0.5" fill="#c04aff"/>
  <text x="470" y="101" font-family="'Courier New', monospace" font-size="7.5" fill="#c04aff" letter-spacing="3">STAGE 3</text>
  <text x="531" y="120" text-anchor="middle" font-family="Georgia, serif" font-size="12" fill="#e0c0ff" font-weight="bold">wps-compiled</text>
  <rect x="463" y="136" width="136" height="12" rx="3" fill="#1a0828" stroke="#3a1850" stroke-width="0.6"/>
  <text x="531" y="145" text-anchor="middle" font-family="'Courier New', monospace" font-size="7" fill="#9a70c0">Dockerfile.wps</text>
  <g font-family="'Courier New', monospace" font-size="7.5" fill="#9a7abf">
    <text x="455" y="163">▸ FROM wrf-compiled</text>
    <text x="455" y="177">▸ Jasper 1.900.1 (WPS copy)</text>
    <text x="455" y="191">▸ WPS v4.5 (git clone)</text>
    <text x="455" y="205">▸ configure: opt 3 (serial)</text>
    <text x="455" y="219">▸ <tspan fill="#ffb84a">-fno-lto</tspan> patch applied</text>
    <text x="455" y="233">▸ <tspan fill="#ffb84a">-lnetcdff</tspan> linking fix</text>
    <text x="455" y="247">▸ ./compile</text>
    <text x="455" y="264" fill="#ff7a5a" font-size="7">⚑ geogrid + ungrib + metgrid</text>
    <text x="455" y="278" fill="#ff7a5a" font-size="7">⚑ Fixes NetCDF Fortran linking</text>
  </g>

  <!-- Divider inside Stage 3 card -->
  <line x1="455" y1="292" x2="608" y2="292" stroke="#4a2a6a" stroke-width="0.6" opacity="0.5"/>
  <text x="531" y="306" text-anchor="middle" font-family="'Courier New', monospace" font-size="7" fill="#5a3a7a" letter-spacing="2">EXECUTION</text>
  <text x="531" y="320" text-anchor="middle" font-family="Georgia, serif" font-size="11" fill="#9070b0" font-weight="bold">WPS Pipeline</text>

  <rect x="455" y="330" width="153" height="30" rx="4" fill="#0e0a18" stroke="#2a1a40" stroke-width="0.7"/>
  <text x="463" y="343" font-family="'Courier New', monospace" font-size="8" fill="#8a6aff">① geogrid.exe</text>
  <text x="463" y="354" font-family="'Courier New', monospace" font-size="7" fill="#3a2a5a">Domain grid + static fields</text>

  <rect x="455" y="366" width="153" height="30" rx="4" fill="#0e0a18" stroke="#2a1a40" stroke-width="0.7"/>
  <text x="463" y="379" font-family="'Courier New', monospace" font-size="8" fill="#8a6aff">② ungrib.exe</text>
  <text x="463" y="390" font-family="'Courier New', monospace" font-size="7" fill="#3a2a5a">Decode GFS GRIB2 fields</text>

  <rect x="455" y="402" width="153" height="30" rx="4" fill="#0e0a18" stroke="#2a1a40" stroke-width="0.7"/>
  <text x="463" y="415" font-family="'Courier New', monospace" font-size="8" fill="#8a6aff">③ metgrid.exe</text>
  <text x="463" y="426" font-family="'Courier New', monospace" font-size="7" fill="#3a2a5a">Horizontal interpolation</text>

  <rect x="455" y="440" width="153" height="14" rx="3" fill="#060810" stroke="#1a1030" stroke-width="0.6"/>
  <text x="531" y="450" text-anchor="middle" font-family="'Courier New', monospace" font-size="7" fill="#3a2a60">$ run_wps.sh &lt;case&gt;</text>

  <!-- met_em arrow C3 → C5  (gap=40, from x=619 to x=659) -->
  <line x1="619" y1="390" x2="656" y2="390" stroke="#ffb84a" stroke-width="1.5" marker-end="url(#arrowAmber)" opacity="0.9"/>
  <text x="637" y="383" text-anchor="middle" font-family="'Courier New', monospace" font-size="7" fill="#ffb84a">met_em</text>

  <!-- ===== C4: WRF SIMULATION   x=659  w=175 ===== -->
  <rect x="659" y="84" width="175" height="472" rx="8" fill="#0d1525" stroke="#3a3a6a" stroke-width="1"/>
  <rect x="659" y="84" width="175" height="44" rx="8" fill="#181830" opacity="0.95"/>
  <rect x="659" y="110" width="175" height="18" fill="#181830" opacity="0.95"/>
  <text x="746" y="97" text-anchor="middle" font-family="'Courier New', monospace" font-size="7" fill="#3a3a6a" letter-spacing="3">EXECUTION</text>
  <text x="746" y="113" text-anchor="middle" font-family="Georgia, serif" font-size="11" fill="#8080c0" font-weight="bold">WRF Simulation</text>

  <rect x="670" y="136" width="153" height="46" rx="4" fill="#0a0e20" stroke="#1a2040" stroke-width="0.7"/>
  <text x="678" y="151" font-family="'Courier New', monospace" font-size="8" fill="#ffb84a">① real.exe</text>
  <text x="678" y="163" font-family="'Courier New', monospace" font-size="7" fill="#504020">Init &amp; boundary conditions</text>
  <text x="678" y="175" font-family="'Courier New', monospace" font-size="6.5" fill="#302810">→ wrfinput_d01 · wrfbdy_d01</text>

  <rect x="670" y="188" width="153" height="56" rx="4" fill="#0a0e20" stroke="#1a2040" stroke-width="0.7"/>
  <text x="678" y="203" font-family="'Courier New', monospace" font-size="8" fill="#ffb84a">② wrf.exe</text>
  <text x="678" y="215" font-family="'Courier New', monospace" font-size="7" fill="#504020">Numerical simulation</text>
  <text x="678" y="227" font-family="'Courier New', monospace" font-size="7" fill="#504020">T · Wind · Rain · Humidity</text>
  <text x="678" y="239" font-family="'Courier New', monospace" font-size="6.5" fill="#302810">→ wrfout_d01_*</text>

  <rect x="670" y="250" width="153" height="14" rx="3" fill="#141000" stroke="#2a2000" stroke-width="0.6"/>
  <text x="746" y="260" text-anchor="middle" font-family="'Courier New', monospace" font-size="7" fill="#504020">nohup · runs in background</text>

  <rect x="670" y="270" width="153" height="14" rx="3" fill="#060810" stroke="#1a1830" stroke-width="0.6"/>
  <text x="746" y="280" text-anchor="middle" font-family="'Courier New', monospace" font-size="7" fill="#3a3a60">$ run_wrf.sh &lt;case&gt;</text>

  <rect x="670" y="290" width="153" height="14" rx="3" fill="#060810" stroke="#1a1830" stroke-width="0.6"/>
  <text x="746" y="300" text-anchor="middle" font-family="'Courier New', monospace" font-size="7" fill="#3a3a60">→ simulation.log</text>

  <!-- Divider -->
  <line x1="670" y1="315" x2="822" y2="315" stroke="#2a2a5a" stroke-width="0.6" opacity="0.5"/>
  <text x="746" y="328" text-anchor="middle" font-family="'Courier New', monospace" font-size="7" fill="#3a3a6a" letter-spacing="2">OUTPUT FILES</text>
  <g font-family="'Courier New', monospace" font-size="7" fill="#4a4a7a">
    <text x="670" y="346">📄 geo_em.d01.nc</text>
    <text x="670" y="360">📄 met_em.d01.*.nc</text>
    <text x="670" y="374">📄 wrfinput_d01</text>
    <text x="670" y="388">📄 wrfbdy_d01</text>
    <text x="670" y="402" fill="#7a5030">📄 wrfout_d01_YYYY-MM-DD_HH.nc</text>
    <text x="670" y="416" font-size="6.5" fill="#3a3050">  T · Wind · Rain · Pressure</text>
  </g>
  <rect x="670" y="428" width="153" height="14" rx="3" fill="#060810" stroke="#1a1830" stroke-width="0.6"/>
  <text x="746" y="438" text-anchor="middle" font-family="'Courier New', monospace" font-size="7" fill="#3a3a60">/cases/&lt;name&gt;/output/</text>

  <!-- Arrow C4 → C5  (gap=40, x=834 to x=874) -->
  <line x1="834" y1="250" x2="871" y2="250" stroke="#ffb84a" stroke-width="1.5" marker-end="url(#arrowAmber)" opacity="0.9"/>
  <text x="852" y="243" text-anchor="middle" font-family="'Courier New', monospace" font-size="7" fill="#ffb84a">outputs</text>

  <!-- ===== C5: DETAILED OUTPUTS   x=874  w=392 ===== -->
  <rect x="874" y="84" width="392" height="472" rx="8" fill="url(#outGrad)" stroke="#6a2a2a" stroke-width="1.2"/>
  <rect x="874" y="84" width="392" height="44" rx="8" fill="#2a0e0e" opacity="0.95"/>
  <rect x="874" y="110" width="392" height="18" fill="#2a0e0e" opacity="0.95"/>
  <text x="1070" y="97" text-anchor="middle" font-family="'Courier New', monospace" font-size="7" fill="#5a2020" letter-spacing="3">RESULTS</text>
  <text x="1070" y="113" text-anchor="middle" font-family="Georgia, serif" font-size="12" fill="#ffb0a0" font-weight="bold">NetCDF Outputs</text>

  <text x="1070" y="140" text-anchor="middle" font-family="'Courier New', monospace" font-size="7.5" fill="#6a3a3a">/cases/&lt;case_name&gt;/output/</text>

  <g font-family="'Courier New', monospace">
    <rect x="886" y="150" width="368" height="56" rx="5" fill="#150606" stroke="#3a1010" stroke-width="0.8"/>
    <text x="896" y="166" font-size="8.5" fill="#ff7a5a">geo_em.d01.nc</text>
    <text x="896" y="179" font-size="7" fill="#6a3030">Geographical grid for domain 1. Static fields: terrain,</text>
    <text x="896" y="191" font-size="7" fill="#6a3030">land-use, soil categories.</text>

    <rect x="886" y="214" width="368" height="56" rx="5" fill="#150606" stroke="#3a1010" stroke-width="0.8"/>
    <text x="896" y="230" font-size="8.5" fill="#ff7a5a">met_em.d01.YYYY-MM-DD_HH:mm:ss.nc</text>
    <text x="896" y="243" font-size="7" fill="#6a3030">Horizontally interpolated meteorological fields.</text>
    <text x="896" y="255" font-size="7" fill="#6a3030">One file per GFS time step.</text>

    <rect x="886" y="278" width="368" height="56" rx="5" fill="#150606" stroke="#3a1010" stroke-width="0.8"/>
    <text x="896" y="294" font-size="8.5" fill="#ff7a5a">wrfinput_d01  ·  wrfbdy_d01</text>
    <text x="896" y="307" font-size="7" fill="#6a3030">WRF initial conditions (t = 0) and lateral boundary</text>
    <text x="896" y="319" font-size="7" fill="#6a3030">conditions. Generated by real.exe.</text>

    <rect x="886" y="342" width="368" height="80" rx="5" fill="#1e0606" stroke="#5a1010" stroke-width="1.2"/>
    <text x="896" y="359" font-size="8.5" fill="#ff5a3a">wrfout_d01_YYYY-MM-DD_HH:00:00.nc</text>
    <text x="896" y="372" font-size="7" fill="#804040">Main forecast output in NetCDF format.</text>
    <text x="896" y="386" font-size="7.5" fill="#904040">Temperature · Wind speed &amp; direction · Precipitation</text>
    <text x="896" y="400" font-size="7.5" fill="#904040">Surface pressure · Relative humidity · Geopotential</text>
    <text x="896" y="414" font-size="6.5" fill="#502828">Interval defined by history_interval in namelist.input</text>

    <rect x="886" y="430" width="368" height="40" rx="5" fill="#100404" stroke="#2a0808" stroke-width="0.8"/>
    <text x="896" y="446" font-size="8" fill="#c05040">simulation.log</text>
    <text x="896" y="459" font-size="7" fill="#502020">nohup stdout/stderr. Monitor with: tail -f simulation.log</text>
  </g>

  <!-- ===== FOOTER ===== -->
  <line x1="14" y1="600" x2="1266" y2="600" stroke="#4a9eff" stroke-width="0.4" opacity="0.15"/>
  <g font-family="'Courier New', monospace" font-size="7.5" fill="#3a5070">
    <rect x="20" y="607" width="8" height="8" rx="1" fill="#1a3060" stroke="#4a9eff" stroke-width="0.8"/>
    <text x="34" y="614">Docker image</text>
    <line x1="118" y1="611" x2="138" y2="611" stroke="#4a9eff" stroke-width="1.3" stroke-dasharray="3,2"/>
    <text x="143" y="614">FROM inheritance</text>
    <circle cx="252" cy="611" r="3" fill="#ffb84a" opacity="0.8"/>
    <text x="260" y="614">data flow</text>
    <line x1="315" y1="611" x2="335" y2="611" stroke="#2a4060" stroke-width="1" stroke-dasharray="4,3"/>
    <text x="340" y="614">volume mount (-v)</text>
    <text x="700" y="614" fill="#2a3a50">WRF v4.5.2  ·  WPS v4.5  ·  Ubuntu 22.04  ·  gfortran/gcc 11</text>
  </g>

</svg>
